<svg width="109" height="55" viewBox="0 0 109 55" fill="none" xmlns="http://www.w3.org/2000/svg">
<path d="M1.10809 19.1571C9.2809 17.2008 17.6678 16.2042 26.0905 16.1304C30.3018 16.0935 34.5131 16.315 38.6887 16.7579C42.6502 17.1639 46.6117 17.7545 50.4661 18.7142C54.0707 19.6001 57.604 20.8919 60.7446 22.959C63.6354 24.8783 65.9909 27.4621 67.5255 30.6733C68.9531 33.6631 69.4884 37.1697 68.5605 40.381C67.6683 43.5553 65.4556 46.2129 62.8503 48.0954C59.781 50.2731 56.2121 51.3804 52.5718 51.8972C48.5746 52.4878 44.4347 52.4878 40.4375 52.3032C36.6901 52.1556 32.8357 51.565 29.5523 49.5718C26.8042 47.9108 24.5201 45.327 23.842 42.042C22.4145 35.2503 28.3032 29.5291 33.2997 26.2809C36.4046 24.2508 39.7951 22.7006 43.2213 21.298C46.7902 19.8584 50.4305 18.6404 54.1064 17.6438C61.5655 15.6506 69.1672 14.4694 76.8404 13.7681C84.5849 13.0668 92.3295 12.8084 100.074 12.6977C101.966 12.6608 103.893 12.6239 105.784 12.6239C106.926 12.6239 106.926 10.7783 105.784 10.7783C97.6828 10.8891 89.6171 10.9998 81.5514 11.5534C73.5213 12.1071 65.4912 13.0668 57.6396 14.8754C49.8951 16.6472 42.2933 19.3048 35.2269 23.0328C32.0862 24.6938 29.0884 26.8346 26.6258 29.4922C24.306 32.0022 22.4145 35.1027 21.9862 38.6092C21.558 42.1527 22.8428 45.6592 25.1625 48.243C27.6608 51.0113 31.1226 52.6723 34.6915 53.4105C38.8315 54.2964 43.1499 54.2226 47.3612 54.0749C51.5368 53.9273 55.8195 53.4475 59.7453 51.8234C62.9573 50.4946 65.8838 48.3906 68.0252 45.5116C70.1665 42.6325 71.2015 39.0153 70.8089 35.398C70.4164 31.7438 68.8103 28.348 66.5262 25.5796C64.0994 22.5898 60.8517 20.4859 57.3898 18.9726C53.7852 17.4223 49.9665 16.4995 46.1121 15.8351C41.8294 15.0969 37.511 14.6171 33.1569 14.3587C24.4131 13.8789 15.6336 14.4325 6.9968 15.9828C4.89114 16.3519 2.78547 16.7948 0.7155 17.3116C-0.49793 17.6438 -0.0339579 19.4524 1.10809 19.1571Z" fill="#4F7295"/>
<path d="M93.782 1.54992C95.8876 3.58002 98.029 5.49939 100.242 7.38186C101.348 8.30463 102.454 9.2274 103.596 10.1133C104.168 10.5562 104.739 11.036 105.345 11.479C105.738 11.7743 106.237 12.1065 106.416 12.5863C106.559 12.2541 106.701 11.885 106.809 11.5528C101.883 13.8782 96.994 16.2405 92.0689 18.5659C91.6406 18.7874 91.5336 19.4149 91.7477 19.8209C91.9975 20.3007 92.5329 20.3745 92.9611 20.1531C97.8862 17.8277 102.776 15.4654 107.701 13.14C108.058 12.9923 108.236 12.4387 108.093 12.1065C107.665 10.7038 106.202 9.92872 105.131 9.07976C103.989 8.1939 102.847 7.23421 101.741 6.31144C99.4209 4.35515 97.2081 2.32505 95.0311 0.258033C94.1746 -0.55401 92.9254 0.737876 93.782 1.54992Z" fill="#4F7295"/>
</svg>
