<svg width="25" height="24" viewBox="0 0 25 24" fill="none" xmlns="http://www.w3.org/2000/svg">
<path d="M12.4457 7.5C11.5557 7.5 10.6856 7.76392 9.94561 8.25839C9.20559 8.75285 8.62882 9.45566 8.28822 10.2779C7.94763 11.1002 7.85851 12.005 8.03215 12.8779C8.20578 13.7508 8.63436 14.5526 9.2637 15.182C9.89303 15.8113 10.6949 16.2399 11.5678 16.4135C12.4407 16.5872 13.3455 16.4981 14.1678 16.1575C14.99 15.8169 15.6928 15.2401 16.1873 14.5001C16.6818 13.76 16.9457 12.89 16.9457 12C16.9457 10.8065 16.4716 9.66193 15.6277 8.81802C14.7837 7.97411 13.6392 7.5 12.4457 7.5ZM12.4457 15C11.8523 15 11.2723 14.8241 10.779 14.4944C10.2856 14.1648 9.9011 13.6962 9.67404 13.1481C9.44698 12.5999 9.38757 11.9967 9.50332 11.4147C9.61908 10.8328 9.9048 10.2982 10.3244 9.87868C10.7439 9.45912 11.2785 9.1734 11.8604 9.05764C12.4424 8.94189 13.0456 9.0013 13.5937 9.22836C14.1419 9.45542 14.6104 9.83994 14.9401 10.3333C15.2697 10.8266 15.4457 11.4067 15.4457 12C15.4432 12.7949 15.1263 13.5565 14.5643 14.1186C14.0022 14.6807 13.2406 14.9975 12.4457 15ZM16.5707 2.625H8.32068C6.92829 2.625 5.59293 3.17812 4.60837 4.16269C3.6238 5.14726 3.07068 6.48261 3.07068 7.875V16.125C3.07068 17.5174 3.6238 18.8527 4.60837 19.8373C5.59293 20.8219 6.92829 21.375 8.32068 21.375H16.5707C17.9631 21.375 19.2984 20.8219 20.283 19.8373C21.2676 18.8527 21.8207 17.5174 21.8207 16.125V7.875C21.8207 6.48261 21.2676 5.14726 20.283 4.16269C19.2984 3.17812 17.9631 2.625 16.5707 2.625ZM20.3207 16.125C20.3207 16.6175 20.2237 17.1051 20.0352 17.5601C19.8468 18.015 19.5705 18.4284 19.2223 18.7766C18.8741 19.1249 18.4607 19.4011 18.0057 19.5895C17.5508 19.778 17.0631 19.875 16.5707 19.875H8.32068C7.82822 19.875 7.34059 19.778 6.88562 19.5895C6.43064 19.4011 6.01725 19.1249 5.66903 18.7766C5.32081 18.4284 5.04459 18.015 4.85613 17.5601C4.66768 17.1051 4.57068 16.6175 4.57068 16.125V7.875C4.57068 6.88044 4.96577 5.92661 5.66903 5.22335C6.37229 4.52009 7.32612 4.125 8.32068 4.125H16.5707C17.0631 4.125 17.5508 4.222 18.0057 4.41045C18.4607 4.59891 18.8741 4.87513 19.2223 5.22335C19.5705 5.57157 19.8468 5.98497 20.0352 6.43994C20.2237 6.89491 20.3207 7.38254 20.3207 7.875V16.125ZM18.4457 7.125C18.4457 7.3475 18.3797 7.56501 18.2561 7.75002C18.1325 7.93502 17.9568 8.07922 17.7512 8.16436C17.5456 8.24951 17.3194 8.27179 17.1012 8.22838C16.883 8.18498 16.6825 8.07783 16.5252 7.9205C16.3679 7.76316 16.2607 7.56271 16.2173 7.34448C16.1739 7.12625 16.1962 6.90005 16.2813 6.69448C16.3665 6.48891 16.5107 6.31321 16.6957 6.1896C16.8807 6.06598 17.0982 6 17.3207 6C17.619 6 17.9052 6.11853 18.1162 6.3295C18.3272 6.54048 18.4457 6.82663 18.4457 7.125Z" fill="white"/>
</svg>
