<svg width="199" height="15" viewBox="0 0 199 15" fill="none" xmlns="http://www.w3.org/2000/svg">
<path fill-rule="evenodd" clip-rule="evenodd" d="M84.5175 1.43656C75.1684 1.92885 65.9291 2.53417 56.9193 3.19595C44.1648 4.13211 31.4153 5.10057 18.7426 6.63394C14.7536 7.11817 10.7026 7.42483 6.73848 8.03011C4.25005 8.40942 0.950446 8.95006 0.517415 9.06305C0.290922 9.12761 0.192111 9.22454 0.160182 9.25683C-0.0643157 9.4828 -0.0233531 9.70061 0.103363 9.87009C0.15425 9.94272 0.282926 10.1203 0.640126 10.1446C24.5287 11.799 48.9561 8.57083 72.8736 8.23187C114.351 7.6508 157.085 9.95894 198.233 14.9949C198.592 15.0352 198.941 14.8334 198.991 14.5348C199.051 14.2443 198.792 13.9618 198.433 13.9214C157.215 8.87744 114.411 6.56122 72.8536 7.15036C50.5634 7.46511 27.8333 10.2979 5.51222 9.32943C6.02508 9.24873 6.52798 9.16799 6.98695 9.09536C10.9351 8.49008 14.9691 8.1915 18.9422 7.70727C31.5879 6.1739 44.3115 5.20545 57.049 4.27735C72.8536 3.11521 89.3467 2.11448 105.969 1.64639C111.916 1.71903 117.843 1.79169 123.77 1.88047C136.591 2.07416 149.472 2.63909 162.264 3.39771C166.115 3.63175 169.966 3.87384 173.818 4.08367C175.095 4.1563 178.388 4.3661 178.847 4.34996C179.415 4.33382 179.525 3.94647 179.535 3.88191C179.565 3.73664 179.545 3.53487 179.265 3.36539C179.236 3.34118 179.056 3.26043 178.657 3.212C155.399 0.355082 130.564 -0.120997 105.989 0.564987C80.0675 0.266382 54.0457 0.137197 28.1895 0C27.8193 0 27.517 0.242148 27.514 0.540752C27.512 0.839357 27.8103 1.08151 28.1805 1.08958C46.9026 1.18643 65.7195 1.28322 84.5175 1.43656Z" fill="#173B58"/>
</svg>
