<svg width="22" height="21" viewBox="0 0 22 21" fill="none" xmlns="http://www.w3.org/2000/svg">
<path d="M5.24851 20.1318V6.62537H0.76316V20.1318H5.24898H5.24851ZM3.00677 4.78161C4.57058 4.78161 5.54415 3.74448 5.54415 2.44835C5.51488 1.12269 4.57058 0.114502 3.03651 0.114502C1.50139 0.114502 0.498779 1.12269 0.498779 2.44823C0.498779 3.74436 1.472 4.7815 2.97738 4.7815H3.00642L3.00677 4.78161ZM7.73121 20.1318H12.2162V12.59C12.2162 12.1869 12.2455 11.7827 12.364 11.4948C12.6881 10.6879 13.4261 9.85268 14.6654 9.85268C16.288 9.85268 16.9375 11.0911 16.9375 12.907V20.1318H21.4224V12.3876C21.4224 8.2392 19.2099 6.30872 16.259 6.30872C13.8396 6.30872 12.777 7.66216 12.1867 8.58398H12.2166V6.62584H7.73144C7.78999 7.8929 7.73109 20.1323 7.73109 20.1323L7.73121 20.1318Z" fill="white"/>
</svg>
