<svg width="25" height="24" viewBox="0 0 25 24" fill="none" xmlns="http://www.w3.org/2000/svg">
<path d="M22.4047 13.7189V21.0979H18.1267V14.2129C18.1267 12.4829 17.5077 11.3029 15.9597 11.3029C14.7777 11.3029 14.0737 12.0989 13.7647 12.8679C13.6517 13.1429 13.6227 13.5259 13.6227 13.9109V21.0979H9.34268C9.34268 21.0979 9.40068 9.43788 9.34268 8.22888H13.6227V10.0529L13.5947 10.0949H13.6227V10.0529C14.1907 9.17788 15.2057 7.92688 17.4787 7.92688C20.2937 7.92688 22.4047 9.76688 22.4047 13.7189ZM4.86668 2.02588C3.40368 2.02588 2.44568 2.98588 2.44568 4.24888C2.44568 5.48388 3.37568 6.47288 4.81068 6.47288H4.83868C6.33168 6.47288 7.25868 5.48388 7.25868 4.24888C7.23268 2.98588 6.33268 2.02588 4.86768 2.02588H4.86668ZM2.69968 21.0979H6.97768V8.22888H2.69968V21.0979Z" fill="white"/>
</svg>
