<svg width="18" height="22" viewBox="0 0 18 22" fill="none" xmlns="http://www.w3.org/2000/svg">
<path d="M9.00001 11.0001C7.80834 11.0001 6.83334 10.0251 6.83334 8.83341C6.83334 7.64175 7.80834 6.66675 9.00001 6.66675C10.1917 6.66675 11.1667 7.64175 11.1667 8.83341C11.1667 10.0251 10.1917 11.0001 9.00001 11.0001ZM15.5 9.05008C15.5 5.11758 12.6292 2.33341 9.00001 2.33341C5.37084 2.33341 2.50001 5.11758 2.50001 9.05008C2.50001 11.5851 4.61251 14.9434 9.00001 18.9517C13.3875 14.9434 15.5 11.5851 15.5 9.05008ZM9.00001 0.166748C13.55 0.166748 17.6667 3.65508 17.6667 9.05008C17.6667 12.6467 14.7742 16.9042 9.00001 21.8334C3.22584 16.9042 0.333344 12.6467 0.333344 9.05008C0.333344 3.65508 4.45001 0.166748 9.00001 0.166748Z" fill="#173B58"/>
</svg>
