<svg width="51" height="50" viewBox="0 0 51 50" fill="none" xmlns="http://www.w3.org/2000/svg">
<g opacity="0.1" clip-path="url(#clip0_1_220)">
<path fill-rule="evenodd" clip-rule="evenodd" d="M48.0971 15.7357C38.7127 33.1857 19.9666 40.2801 2.55545 30.4561C1.97583 30.129 1.24081 30.3335 0.913684 30.906C0.586561 31.4887 0.791035 32.2247 1.37066 32.5518C20.033 43.0913 40.1602 35.5778 50.2193 16.8806C50.5341 16.2979 50.3144 15.5618 49.7286 15.2449C49.1429 14.9382 48.4119 15.153 48.0971 15.7357Z" fill="#2F65D5"/>
<path d="M17.2072 22.971C19.1457 22.971 20.7172 21.3996 20.7172 19.4611C20.7172 17.5226 19.1457 15.9512 17.2072 15.9512C15.2687 15.9512 13.6973 17.5226 13.6973 19.4611C13.6973 21.3996 15.2687 22.971 17.2072 22.971Z" fill="#2F65D5"/>
<path d="M31.7382 19.2381C33.6388 19.2381 35.1796 17.6974 35.1796 15.7968C35.1796 13.8962 33.6388 12.3555 31.7382 12.3555C29.8376 12.3555 28.2969 13.8962 28.2969 15.7968C28.2969 17.6974 29.8376 19.2381 31.7382 19.2381Z" fill="#2F65D5"/>
</g>
<defs>
<clipPath id="clip0_1_220">
<rect width="50" height="50" fill="white" transform="translate(0.757812)"/>
</clipPath>
</defs>
</svg>
