<svg width="73" height="73" viewBox="0 0 73 73" fill="none" xmlns="http://www.w3.org/2000/svg">
<g opacity="0.03">
<path fill-rule="evenodd" clip-rule="evenodd" d="M31.2502 8.64166C31.268 13.5464 29.5999 22.4185 42.4316 24.5629C34.4661 25.7126 31.4222 31.8693 31.2517 39.7666C31.0564 33.8055 31.874 26.9222 18.8064 25.0355C31.3483 24.0439 31.1744 13.6821 31.2502 8.64166Z" fill="white" stroke="black" stroke-width="3.0927" stroke-miterlimit="1.5" stroke-linecap="round" stroke-linejoin="round"/>
<path fill-rule="evenodd" clip-rule="evenodd" d="M43.7034 32.5693C43.7212 37.4741 40.3801 46.5809 53.2118 48.7253C45.2463 49.875 43.8754 55.797 43.7049 63.6942C43.5095 57.7328 43.1101 50.7974 34.0461 48.808C42.8318 47.7595 42.6836 39.2626 43.7034 32.5693Z" fill="white" stroke="black" stroke-width="3.0927" stroke-miterlimit="1.5" stroke-linecap="round" stroke-linejoin="round"/>
<path d="M17.6398 7.2157C19.7109 9.61175 21.353 12.3911 23.4784 14.7354" stroke="black" stroke-width="3.0927" stroke-miterlimit="1.5" stroke-linecap="round" stroke-linejoin="round"/>
<path d="M37.7419 16.5088C39.2923 15.2312 40.7582 13.7764 42.0144 12.2061" stroke="black" stroke-width="3.0927" stroke-miterlimit="1.5" stroke-linecap="round" stroke-linejoin="round"/>
<path d="M24.01 33.0156C21.9259 34.9472 19.9906 37.0976 18.1057 39.224" stroke="black" stroke-width="3.0927" stroke-miterlimit="1.5" stroke-linecap="round" stroke-linejoin="round"/>
<path d="M36.968 37.4453C37.1955 37.7932 37.4699 38.1102 37.7178 38.444" stroke="black" stroke-width="3.0927" stroke-miterlimit="1.5" stroke-linecap="round" stroke-linejoin="round"/>
<path d="M34.3857 57.2869C34.8815 56.7931 35.395 56.3172 35.8833 55.8156" stroke="black" stroke-width="3.0927" stroke-miterlimit="1.5" stroke-linecap="round" stroke-linejoin="round"/>
<path d="M48.9724 41.2199C51.1668 39.234 53.0755 37.0523 54.9231 34.7461" stroke="black" stroke-width="3.0927" stroke-miterlimit="1.5" stroke-linecap="round" stroke-linejoin="round"/>
<path d="M49.5077 57.459C52.0948 59.0686 53.8952 62.383 55.6852 64.8041" stroke="black" stroke-width="3.0927" stroke-miterlimit="1.5" stroke-linecap="round" stroke-linejoin="round"/>
</g>
</svg>
